<mxfile host="app.diagrams.net" agent="Mozilla/5.0 (Windows NT 10.0; Win64; x64) AppleWebKit/537.36 (KHTML, like Gecko) Chrome/133.0.0.0 Safari/537.36" version="26.0.14">
  <diagram name="第 1 页" id="CBymwMI0HAd-SCF63vjF">
    <mxGraphModel dx="2327" dy="1926" grid="1" gridSize="10" guides="1" tooltips="1" connect="1" arrows="1" fold="1" page="1" pageScale="1" pageWidth="827" pageHeight="1169" math="0" shadow="0">
      <root>
        <mxCell id="0" />
        <mxCell id="1" parent="0" />
        <mxCell id="6X7HV17gJ3_o3CEE1zzu-14" style="edgeStyle=entityRelationEdgeStyle;rounded=0;orthogonalLoop=1;jettySize=auto;html=1;startArrow=none;endArrow=none;segment=10;curved=1;sourcePerimeterSpacing=0;targetPerimeterSpacing=0;entryX=1;entryY=0.5;entryDx=0;entryDy=0;fontFamily=Comic Sans MS;" edge="1" parent="1" source="6X7HV17gJ3_o3CEE1zzu-1" target="6X7HV17gJ3_o3CEE1zzu-13">
          <mxGeometry relative="1" as="geometry" />
        </mxCell>
        <mxCell id="6X7HV17gJ3_o3CEE1zzu-16" style="edgeStyle=entityRelationEdgeStyle;rounded=0;orthogonalLoop=1;jettySize=auto;html=1;startArrow=none;endArrow=none;segment=10;curved=1;sourcePerimeterSpacing=0;targetPerimeterSpacing=0;entryX=1;entryY=0.5;entryDx=0;entryDy=0;fontFamily=Comic Sans MS;" edge="1" parent="1" source="6X7HV17gJ3_o3CEE1zzu-1" target="6X7HV17gJ3_o3CEE1zzu-15">
          <mxGeometry relative="1" as="geometry" />
        </mxCell>
        <mxCell id="6X7HV17gJ3_o3CEE1zzu-28" style="edgeStyle=entityRelationEdgeStyle;rounded=0;orthogonalLoop=1;jettySize=auto;html=1;startArrow=none;endArrow=none;segment=10;curved=1;sourcePerimeterSpacing=0;targetPerimeterSpacing=0;entryX=1;entryY=0.5;entryDx=0;entryDy=0;fontFamily=Comic Sans MS;" edge="1" parent="1" source="6X7HV17gJ3_o3CEE1zzu-1" target="6X7HV17gJ3_o3CEE1zzu-27">
          <mxGeometry relative="1" as="geometry" />
        </mxCell>
        <mxCell id="6X7HV17gJ3_o3CEE1zzu-1" value="STE" style="ellipse;whiteSpace=wrap;html=1;align=center;newEdgeStyle={&quot;edgeStyle&quot;:&quot;entityRelationEdgeStyle&quot;,&quot;startArrow&quot;:&quot;none&quot;,&quot;endArrow&quot;:&quot;none&quot;,&quot;segment&quot;:10,&quot;curved&quot;:1,&quot;sourcePerimeterSpacing&quot;:0,&quot;targetPerimeterSpacing&quot;:0};treeFolding=1;treeMoving=1;fillColor=#f8cecc;strokeColor=#b85450;fontFamily=Comic Sans MS;" vertex="1" parent="1">
          <mxGeometry x="150" y="210" width="100" height="40" as="geometry" />
        </mxCell>
        <mxCell id="6X7HV17gJ3_o3CEE1zzu-2" value="Background" style="whiteSpace=wrap;html=1;rounded=1;arcSize=50;align=center;verticalAlign=middle;strokeWidth=1;autosize=1;spacing=4;treeFolding=1;treeMoving=1;newEdgeStyle={&quot;edgeStyle&quot;:&quot;entityRelationEdgeStyle&quot;,&quot;startArrow&quot;:&quot;none&quot;,&quot;endArrow&quot;:&quot;none&quot;,&quot;segment&quot;:10,&quot;curved&quot;:1,&quot;sourcePerimeterSpacing&quot;:0,&quot;targetPerimeterSpacing&quot;:0};fillColor=#dae8fc;strokeColor=#6c8ebf;fontFamily=Comic Sans MS;" vertex="1" parent="1">
          <mxGeometry x="425" y="215" width="110" height="30" as="geometry" />
        </mxCell>
        <mxCell id="6X7HV17gJ3_o3CEE1zzu-4" value="Foreground" style="whiteSpace=wrap;html=1;rounded=1;arcSize=50;align=center;verticalAlign=middle;strokeWidth=1;autosize=1;spacing=4;treeFolding=1;treeMoving=1;newEdgeStyle={&quot;edgeStyle&quot;:&quot;entityRelationEdgeStyle&quot;,&quot;startArrow&quot;:&quot;none&quot;,&quot;endArrow&quot;:&quot;none&quot;,&quot;segment&quot;:10,&quot;curved&quot;:1,&quot;sourcePerimeterSpacing&quot;:0,&quot;targetPerimeterSpacing&quot;:0};fillColor=#dae8fc;strokeColor=#6c8ebf;fontFamily=Comic Sans MS;" vertex="1" parent="1">
          <mxGeometry x="425" y="360" width="110" height="30" as="geometry" />
        </mxCell>
        <mxCell id="6X7HV17gJ3_o3CEE1zzu-9" style="edgeStyle=entityRelationEdgeStyle;rounded=0;orthogonalLoop=1;jettySize=auto;html=1;startArrow=none;endArrow=none;segment=10;curved=1;sourcePerimeterSpacing=0;targetPerimeterSpacing=0;entryX=0;entryY=0.5;entryDx=0;entryDy=0;fontFamily=Comic Sans MS;" edge="1" parent="1" source="6X7HV17gJ3_o3CEE1zzu-6" target="6X7HV17gJ3_o3CEE1zzu-2">
          <mxGeometry relative="1" as="geometry" />
        </mxCell>
        <mxCell id="6X7HV17gJ3_o3CEE1zzu-10" style="edgeStyle=entityRelationEdgeStyle;rounded=0;orthogonalLoop=1;jettySize=auto;html=1;startArrow=none;endArrow=none;segment=10;curved=1;sourcePerimeterSpacing=0;targetPerimeterSpacing=0;entryX=0;entryY=0.5;entryDx=0;entryDy=0;fontFamily=Comic Sans MS;" edge="1" parent="1" source="6X7HV17gJ3_o3CEE1zzu-6" target="6X7HV17gJ3_o3CEE1zzu-4">
          <mxGeometry relative="1" as="geometry" />
        </mxCell>
        <mxCell id="6X7HV17gJ3_o3CEE1zzu-18" style="edgeStyle=entityRelationEdgeStyle;rounded=0;orthogonalLoop=1;jettySize=auto;html=1;startArrow=none;endArrow=none;segment=10;curved=1;sourcePerimeterSpacing=0;targetPerimeterSpacing=0;entryX=0;entryY=0.5;entryDx=0;entryDy=0;fontFamily=Comic Sans MS;" edge="1" parent="1" source="6X7HV17gJ3_o3CEE1zzu-6" target="6X7HV17gJ3_o3CEE1zzu-17">
          <mxGeometry relative="1" as="geometry" />
        </mxCell>
        <mxCell id="6X7HV17gJ3_o3CEE1zzu-6" value="Methodology" style="whiteSpace=wrap;html=1;rounded=1;arcSize=50;align=center;verticalAlign=middle;strokeWidth=1;autosize=1;spacing=4;treeFolding=1;treeMoving=1;newEdgeStyle={&quot;edgeStyle&quot;:&quot;entityRelationEdgeStyle&quot;,&quot;startArrow&quot;:&quot;none&quot;,&quot;endArrow&quot;:&quot;none&quot;,&quot;segment&quot;:10,&quot;curved&quot;:1,&quot;sourcePerimeterSpacing&quot;:0,&quot;targetPerimeterSpacing&quot;:0};fillColor=#d5e8d4;strokeColor=#82b366;fontFamily=Comic Sans MS;" vertex="1" parent="1">
          <mxGeometry x="280" y="215" width="120" height="30" as="geometry" />
        </mxCell>
        <mxCell id="6X7HV17gJ3_o3CEE1zzu-7" value="" style="edgeStyle=entityRelationEdgeStyle;startArrow=none;endArrow=none;segment=10;curved=1;sourcePerimeterSpacing=0;targetPerimeterSpacing=0;rounded=0;fontFamily=Comic Sans MS;" edge="1" target="6X7HV17gJ3_o3CEE1zzu-6" parent="1" source="6X7HV17gJ3_o3CEE1zzu-1">
          <mxGeometry x="300" y="217" width="80" height="26" as="geometry" />
        </mxCell>
        <mxCell id="6X7HV17gJ3_o3CEE1zzu-8" style="edgeStyle=entityRelationEdgeStyle;rounded=0;orthogonalLoop=1;jettySize=auto;html=1;startArrow=none;endArrow=none;segment=10;curved=1;sourcePerimeterSpacing=0;targetPerimeterSpacing=0;exitX=0.5;exitY=1;exitDx=0;exitDy=0;entryX=0.625;entryY=0.999;entryDx=0;entryDy=0;entryPerimeter=0;fontFamily=Comic Sans MS;" edge="1" parent="1" source="6X7HV17gJ3_o3CEE1zzu-6" target="6X7HV17gJ3_o3CEE1zzu-6">
          <mxGeometry relative="1" as="geometry" />
        </mxCell>
        <mxCell id="6X7HV17gJ3_o3CEE1zzu-11" value="Datasets" style="whiteSpace=wrap;html=1;rounded=1;arcSize=50;align=center;verticalAlign=middle;strokeWidth=1;autosize=1;spacing=4;treeFolding=1;treeMoving=1;newEdgeStyle={&quot;edgeStyle&quot;:&quot;entityRelationEdgeStyle&quot;,&quot;startArrow&quot;:&quot;none&quot;,&quot;endArrow&quot;:&quot;none&quot;,&quot;segment&quot;:10,&quot;curved&quot;:1,&quot;sourcePerimeterSpacing&quot;:0,&quot;targetPerimeterSpacing&quot;:0};fillColor=#d5e8d4;strokeColor=#82b366;fontFamily=Comic Sans MS;" vertex="1" parent="1">
          <mxGeometry x="-10" y="260" width="100" height="30" as="geometry" />
        </mxCell>
        <mxCell id="6X7HV17gJ3_o3CEE1zzu-12" value="" style="edgeStyle=entityRelationEdgeStyle;startArrow=none;endArrow=none;segment=10;curved=1;sourcePerimeterSpacing=0;targetPerimeterSpacing=0;rounded=0;fontFamily=Comic Sans MS;" edge="1" target="6X7HV17gJ3_o3CEE1zzu-11" parent="1" source="6X7HV17gJ3_o3CEE1zzu-1">
          <mxGeometry x="-10" y="217" width="80" height="26" as="geometry" />
        </mxCell>
        <mxCell id="6X7HV17gJ3_o3CEE1zzu-13" value="Loss Func" style="whiteSpace=wrap;html=1;rounded=1;arcSize=50;align=center;verticalAlign=middle;strokeWidth=1;autosize=1;spacing=4;treeFolding=1;treeMoving=1;newEdgeStyle={&quot;edgeStyle&quot;:&quot;entityRelationEdgeStyle&quot;,&quot;startArrow&quot;:&quot;none&quot;,&quot;endArrow&quot;:&quot;none&quot;,&quot;segment&quot;:10,&quot;curved&quot;:1,&quot;sourcePerimeterSpacing&quot;:0,&quot;targetPerimeterSpacing&quot;:0};fillColor=#d5e8d4;strokeColor=#82b366;fontFamily=Comic Sans MS;" vertex="1" parent="1">
          <mxGeometry x="-10" y="490" width="100" height="30" as="geometry" />
        </mxCell>
        <mxCell id="6X7HV17gJ3_o3CEE1zzu-15" value="Idea" style="whiteSpace=wrap;html=1;rounded=1;arcSize=50;align=center;verticalAlign=middle;strokeWidth=1;autosize=1;spacing=4;treeFolding=1;treeMoving=1;newEdgeStyle={&quot;edgeStyle&quot;:&quot;entityRelationEdgeStyle&quot;,&quot;startArrow&quot;:&quot;none&quot;,&quot;endArrow&quot;:&quot;none&quot;,&quot;segment&quot;:10,&quot;curved&quot;:1,&quot;sourcePerimeterSpacing&quot;:0,&quot;targetPerimeterSpacing&quot;:0};fillColor=#d5e8d4;strokeColor=#82b366;fontFamily=Comic Sans MS;" vertex="1" parent="1">
          <mxGeometry x="5" y="-10" width="70" height="30" as="geometry" />
        </mxCell>
        <mxCell id="6X7HV17gJ3_o3CEE1zzu-17" value="Input" style="whiteSpace=wrap;html=1;rounded=1;arcSize=50;align=center;verticalAlign=middle;strokeWidth=1;autosize=1;spacing=4;treeFolding=1;treeMoving=1;newEdgeStyle={&quot;edgeStyle&quot;:&quot;entityRelationEdgeStyle&quot;,&quot;startArrow&quot;:&quot;none&quot;,&quot;endArrow&quot;:&quot;none&quot;,&quot;segment&quot;:10,&quot;curved&quot;:1,&quot;sourcePerimeterSpacing&quot;:0,&quot;targetPerimeterSpacing&quot;:0};fillColor=#dae8fc;strokeColor=#6c8ebf;fontFamily=Comic Sans MS;" vertex="1" parent="1">
          <mxGeometry x="440" y="70" width="80" height="30" as="geometry" />
        </mxCell>
        <mxCell id="6X7HV17gJ3_o3CEE1zzu-19" value="Intruction Tuning&lt;div&gt;在 prompt 中指明文本及其它属性&lt;/div&gt;" style="whiteSpace=wrap;html=1;shape=partialRectangle;top=0;left=0;bottom=1;right=0;points=[[0,1],[1,1]];fillColor=none;align=center;verticalAlign=bottom;routingCenterY=0.5;snapToPoint=1;recursiveResize=0;autosize=1;treeFolding=1;treeMoving=1;newEdgeStyle={&quot;edgeStyle&quot;:&quot;entityRelationEdgeStyle&quot;,&quot;startArrow&quot;:&quot;none&quot;,&quot;endArrow&quot;:&quot;none&quot;,&quot;segment&quot;:10,&quot;curved&quot;:1,&quot;sourcePerimeterSpacing&quot;:0,&quot;targetPerimeterSpacing&quot;:0};fontFamily=Comic Sans MS;" vertex="1" parent="1">
          <mxGeometry x="560" y="20" width="220" height="40" as="geometry" />
        </mxCell>
        <mxCell id="6X7HV17gJ3_o3CEE1zzu-20" value="" style="edgeStyle=entityRelationEdgeStyle;startArrow=none;endArrow=none;segment=10;curved=1;sourcePerimeterSpacing=0;targetPerimeterSpacing=0;rounded=0;fontFamily=Comic Sans MS;" edge="1" target="6X7HV17gJ3_o3CEE1zzu-19" parent="1" source="6X7HV17gJ3_o3CEE1zzu-17">
          <mxGeometry x="595" y="155" width="80" height="20" as="geometry" />
        </mxCell>
        <mxCell id="6X7HV17gJ3_o3CEE1zzu-21" value="在 STE 任务中，大多数位置信息都是由 mask 直接传入的" style="whiteSpace=wrap;html=1;shape=partialRectangle;top=0;left=0;bottom=1;right=0;points=[[0,1],[1,1]];fillColor=none;align=center;verticalAlign=bottom;routingCenterY=0.5;snapToPoint=1;recursiveResize=0;autosize=1;treeFolding=1;treeMoving=1;newEdgeStyle={&quot;edgeStyle&quot;:&quot;entityRelationEdgeStyle&quot;,&quot;startArrow&quot;:&quot;none&quot;,&quot;endArrow&quot;:&quot;none&quot;,&quot;segment&quot;:10,&quot;curved&quot;:1,&quot;sourcePerimeterSpacing&quot;:0,&quot;targetPerimeterSpacing&quot;:0};fontFamily=Comic Sans MS;" vertex="1" parent="1">
          <mxGeometry x="560" y="70" width="350" height="30" as="geometry" />
        </mxCell>
        <mxCell id="6X7HV17gJ3_o3CEE1zzu-22" value="" style="edgeStyle=entityRelationEdgeStyle;startArrow=none;endArrow=none;segment=10;curved=1;sourcePerimeterSpacing=0;targetPerimeterSpacing=0;rounded=0;fontFamily=Comic Sans MS;" edge="1" target="6X7HV17gJ3_o3CEE1zzu-21" parent="1" source="6X7HV17gJ3_o3CEE1zzu-17">
          <mxGeometry x="595" y="155" width="80" height="20" as="geometry" />
        </mxCell>
        <mxCell id="6X7HV17gJ3_o3CEE1zzu-23" value="cross attn 注入" style="whiteSpace=wrap;html=1;shape=partialRectangle;top=0;left=0;bottom=1;right=0;points=[[0,1],[1,1]];fillColor=none;align=center;verticalAlign=bottom;routingCenterY=0.5;snapToPoint=1;recursiveResize=0;autosize=1;treeFolding=1;treeMoving=1;newEdgeStyle={&quot;edgeStyle&quot;:&quot;entityRelationEdgeStyle&quot;,&quot;startArrow&quot;:&quot;none&quot;,&quot;endArrow&quot;:&quot;none&quot;,&quot;segment&quot;:10,&quot;curved&quot;:1,&quot;sourcePerimeterSpacing&quot;:0,&quot;targetPerimeterSpacing&quot;:0};fontFamily=Comic Sans MS;" vertex="1" parent="1">
          <mxGeometry x="575" y="300" width="130" height="30" as="geometry" />
        </mxCell>
        <mxCell id="6X7HV17gJ3_o3CEE1zzu-24" value="" style="edgeStyle=entityRelationEdgeStyle;startArrow=none;endArrow=none;segment=10;curved=1;sourcePerimeterSpacing=0;targetPerimeterSpacing=0;rounded=0;fontFamily=Comic Sans MS;" edge="1" target="6X7HV17gJ3_o3CEE1zzu-23" parent="1" source="6X7HV17gJ3_o3CEE1zzu-4">
          <mxGeometry x="615" y="365" width="80" height="20" as="geometry" />
        </mxCell>
        <mxCell id="6X7HV17gJ3_o3CEE1zzu-25" value="DiffSTE&lt;div&gt;clip embedding 和 character-level embeddintg&amp;nbsp; 分别计算 attn 然后相加融合&lt;/div&gt;" style="whiteSpace=wrap;html=1;shape=partialRectangle;top=0;left=0;bottom=1;right=0;points=[[0,1],[1,1]];fillColor=none;align=center;verticalAlign=bottom;routingCenterY=0.5;snapToPoint=1;recursiveResize=0;autosize=1;treeFolding=1;treeMoving=1;newEdgeStyle={&quot;edgeStyle&quot;:&quot;entityRelationEdgeStyle&quot;,&quot;startArrow&quot;:&quot;none&quot;,&quot;endArrow&quot;:&quot;none&quot;,&quot;segment&quot;:10,&quot;curved&quot;:1,&quot;sourcePerimeterSpacing&quot;:0,&quot;targetPerimeterSpacing&quot;:0};fontFamily=Comic Sans MS;" vertex="1" parent="1">
          <mxGeometry x="740" y="270" width="460" height="40" as="geometry" />
        </mxCell>
        <mxCell id="6X7HV17gJ3_o3CEE1zzu-26" value="" style="edgeStyle=entityRelationEdgeStyle;startArrow=none;endArrow=none;segment=10;curved=1;sourcePerimeterSpacing=0;targetPerimeterSpacing=0;rounded=0;fontFamily=Comic Sans MS;" edge="1" target="6X7HV17gJ3_o3CEE1zzu-25" parent="1" source="6X7HV17gJ3_o3CEE1zzu-23">
          <mxGeometry x="780" y="325" width="80" height="20" as="geometry" />
        </mxCell>
        <mxCell id="6X7HV17gJ3_o3CEE1zzu-27" value="Evaluation Metric" style="whiteSpace=wrap;html=1;rounded=1;arcSize=50;align=center;verticalAlign=middle;strokeWidth=1;autosize=1;spacing=4;treeFolding=1;treeMoving=1;newEdgeStyle={&quot;edgeStyle&quot;:&quot;entityRelationEdgeStyle&quot;,&quot;startArrow&quot;:&quot;none&quot;,&quot;endArrow&quot;:&quot;none&quot;,&quot;segment&quot;:10,&quot;curved&quot;:1,&quot;sourcePerimeterSpacing&quot;:0,&quot;targetPerimeterSpacing&quot;:0};fillColor=#d5e8d4;strokeColor=#82b366;fontFamily=Comic Sans MS;" vertex="1" parent="1">
          <mxGeometry x="-55" y="150" width="140" height="30" as="geometry" />
        </mxCell>
        <mxCell id="6X7HV17gJ3_o3CEE1zzu-29" value="OCR Acc" style="whiteSpace=wrap;html=1;shape=partialRectangle;top=0;left=0;bottom=1;right=0;points=[[0,1],[1,1]];fillColor=none;align=center;verticalAlign=bottom;routingCenterY=0.5;snapToPoint=1;recursiveResize=0;autosize=1;treeFolding=1;treeMoving=1;newEdgeStyle={&quot;edgeStyle&quot;:&quot;entityRelationEdgeStyle&quot;,&quot;startArrow&quot;:&quot;none&quot;,&quot;endArrow&quot;:&quot;none&quot;,&quot;segment&quot;:10,&quot;curved&quot;:1,&quot;sourcePerimeterSpacing&quot;:0,&quot;targetPerimeterSpacing&quot;:0};fontFamily=Comic Sans MS;" vertex="1" parent="1">
          <mxGeometry x="-180" y="125" width="90" height="30" as="geometry" />
        </mxCell>
        <mxCell id="6X7HV17gJ3_o3CEE1zzu-30" value="" style="edgeStyle=entityRelationEdgeStyle;startArrow=none;endArrow=none;segment=10;curved=1;sourcePerimeterSpacing=0;targetPerimeterSpacing=0;rounded=0;fontFamily=Comic Sans MS;" edge="1" target="6X7HV17gJ3_o3CEE1zzu-29" parent="1" source="6X7HV17gJ3_o3CEE1zzu-27">
          <mxGeometry x="-215" y="190" width="80" height="20" as="geometry" />
        </mxCell>
        <mxCell id="6X7HV17gJ3_o3CEE1zzu-31" value="重建损失" style="whiteSpace=wrap;html=1;shape=partialRectangle;top=0;left=0;bottom=1;right=0;points=[[0,1],[1,1]];fillColor=none;align=center;verticalAlign=bottom;routingCenterY=0.5;snapToPoint=1;recursiveResize=0;autosize=1;treeFolding=1;treeMoving=1;newEdgeStyle={&quot;edgeStyle&quot;:&quot;entityRelationEdgeStyle&quot;,&quot;startArrow&quot;:&quot;none&quot;,&quot;endArrow&quot;:&quot;none&quot;,&quot;segment&quot;:10,&quot;curved&quot;:1,&quot;sourcePerimeterSpacing&quot;:0,&quot;targetPerimeterSpacing&quot;:0};fontFamily=Comic Sans MS;" vertex="1" parent="1">
          <mxGeometry x="-140" y="460" width="90" height="30" as="geometry" />
        </mxCell>
        <mxCell id="6X7HV17gJ3_o3CEE1zzu-32" value="" style="edgeStyle=entityRelationEdgeStyle;startArrow=none;endArrow=none;segment=10;curved=1;sourcePerimeterSpacing=0;targetPerimeterSpacing=0;rounded=0;fontFamily=Comic Sans MS;" edge="1" target="6X7HV17gJ3_o3CEE1zzu-31" parent="1" source="6X7HV17gJ3_o3CEE1zzu-13">
          <mxGeometry x="-170" y="335" width="80" height="20" as="geometry" />
        </mxCell>
        <mxCell id="6X7HV17gJ3_o3CEE1zzu-33" value="小文本生成" style="whiteSpace=wrap;html=1;shape=partialRectangle;top=0;left=0;bottom=1;right=0;points=[[0,1],[1,1]];fillColor=none;align=center;verticalAlign=bottom;routingCenterY=0.5;snapToPoint=1;recursiveResize=0;autosize=1;treeFolding=1;treeMoving=1;newEdgeStyle={&quot;edgeStyle&quot;:&quot;entityRelationEdgeStyle&quot;,&quot;startArrow&quot;:&quot;none&quot;,&quot;endArrow&quot;:&quot;none&quot;,&quot;segment&quot;:10,&quot;curved&quot;:1,&quot;sourcePerimeterSpacing&quot;:0,&quot;targetPerimeterSpacing&quot;:0};fontFamily=Comic Sans MS;" vertex="1" parent="1">
          <mxGeometry x="-135" y="-48" width="100" height="30" as="geometry" />
        </mxCell>
        <mxCell id="6X7HV17gJ3_o3CEE1zzu-34" value="" style="edgeStyle=entityRelationEdgeStyle;startArrow=none;endArrow=none;segment=10;curved=1;sourcePerimeterSpacing=0;targetPerimeterSpacing=0;rounded=0;fontFamily=Comic Sans MS;" edge="1" target="6X7HV17gJ3_o3CEE1zzu-33" parent="1" source="6X7HV17gJ3_o3CEE1zzu-15">
          <mxGeometry x="-150" y="123" width="80" height="20" as="geometry" />
        </mxCell>
        <mxCell id="6X7HV17gJ3_o3CEE1zzu-35" value="DiffUTE&lt;div&gt;裁剪为不同大小，从易到难训练 vae encoder&lt;/div&gt;" style="whiteSpace=wrap;html=1;shape=partialRectangle;top=0;left=0;bottom=1;right=0;points=[[0,1],[1,1]];fillColor=none;align=center;verticalAlign=bottom;routingCenterY=0.5;snapToPoint=1;recursiveResize=0;autosize=1;treeFolding=1;treeMoving=1;newEdgeStyle={&quot;edgeStyle&quot;:&quot;entityRelationEdgeStyle&quot;,&quot;startArrow&quot;:&quot;none&quot;,&quot;endArrow&quot;:&quot;none&quot;,&quot;segment&quot;:10,&quot;curved&quot;:1,&quot;sourcePerimeterSpacing&quot;:0,&quot;targetPerimeterSpacing&quot;:0};fontFamily=Comic Sans MS;" vertex="1" parent="1">
          <mxGeometry x="-455" y="-78" width="280" height="40" as="geometry" />
        </mxCell>
        <mxCell id="6X7HV17gJ3_o3CEE1zzu-36" value="" style="edgeStyle=entityRelationEdgeStyle;startArrow=none;endArrow=none;segment=10;curved=1;sourcePerimeterSpacing=0;targetPerimeterSpacing=0;rounded=0;fontFamily=Comic Sans MS;" edge="1" target="6X7HV17gJ3_o3CEE1zzu-35" parent="1" source="6X7HV17gJ3_o3CEE1zzu-33">
          <mxGeometry x="-290" y="85" width="80" height="20" as="geometry" />
        </mxCell>
        <mxCell id="6X7HV17gJ3_o3CEE1zzu-41" value="DiffUTE, SceneTextGen&lt;div&gt;Pillow 绘制“草图”，然后 OCR 提取 embedding 通过 cross attn 融合&lt;/div&gt;" style="whiteSpace=wrap;html=1;shape=partialRectangle;top=0;left=0;bottom=1;right=0;points=[[0,1],[1,1]];fillColor=none;align=center;verticalAlign=bottom;routingCenterY=0.5;snapToPoint=1;recursiveResize=0;autosize=1;treeFolding=1;treeMoving=1;newEdgeStyle={&quot;edgeStyle&quot;:&quot;entityRelationEdgeStyle&quot;,&quot;startArrow&quot;:&quot;none&quot;,&quot;endArrow&quot;:&quot;none&quot;,&quot;segment&quot;:10,&quot;curved&quot;:1,&quot;sourcePerimeterSpacing&quot;:0,&quot;targetPerimeterSpacing&quot;:0};fontFamily=Comic Sans MS;" vertex="1" parent="1">
          <mxGeometry x="740" y="310" width="400" height="40" as="geometry" />
        </mxCell>
        <mxCell id="6X7HV17gJ3_o3CEE1zzu-42" value="" style="edgeStyle=entityRelationEdgeStyle;startArrow=none;endArrow=none;segment=10;curved=1;sourcePerimeterSpacing=0;targetPerimeterSpacing=0;rounded=0;fontFamily=Comic Sans MS;" edge="1" target="6X7HV17gJ3_o3CEE1zzu-41" parent="1" source="6X7HV17gJ3_o3CEE1zzu-23">
          <mxGeometry x="785" y="325" width="80" height="20" as="geometry" />
        </mxCell>
        <mxCell id="6X7HV17gJ3_o3CEE1zzu-43" value="inpainting 训练方式，在 channel 上 concat" style="whiteSpace=wrap;html=1;shape=partialRectangle;top=0;left=0;bottom=1;right=0;points=[[0,1],[1,1]];fillColor=none;align=center;verticalAlign=bottom;routingCenterY=0.5;snapToPoint=1;recursiveResize=0;autosize=1;treeFolding=1;treeMoving=1;newEdgeStyle={&quot;edgeStyle&quot;:&quot;entityRelationEdgeStyle&quot;,&quot;startArrow&quot;:&quot;none&quot;,&quot;endArrow&quot;:&quot;none&quot;,&quot;segment&quot;:10,&quot;curved&quot;:1,&quot;sourcePerimeterSpacing&quot;:0,&quot;targetPerimeterSpacing&quot;:0};fontFamily=Comic Sans MS;" vertex="1" parent="1">
          <mxGeometry x="575" y="370" width="270" height="30" as="geometry" />
        </mxCell>
        <mxCell id="6X7HV17gJ3_o3CEE1zzu-44" value="" style="edgeStyle=entityRelationEdgeStyle;startArrow=none;endArrow=none;segment=10;curved=1;sourcePerimeterSpacing=0;targetPerimeterSpacing=0;rounded=0;fontFamily=Comic Sans MS;" edge="1" target="6X7HV17gJ3_o3CEE1zzu-43" parent="1" source="6X7HV17gJ3_o3CEE1zzu-4">
          <mxGeometry x="615" y="365" width="80" height="20" as="geometry" />
        </mxCell>
        <mxCell id="6X7HV17gJ3_o3CEE1zzu-45" value="DiffUTE" style="whiteSpace=wrap;html=1;shape=partialRectangle;top=0;left=0;bottom=1;right=0;points=[[0,1],[1,1]];fillColor=none;align=center;verticalAlign=bottom;routingCenterY=0.5;snapToPoint=1;recursiveResize=0;autosize=1;treeFolding=1;treeMoving=1;newEdgeStyle={&quot;edgeStyle&quot;:&quot;entityRelationEdgeStyle&quot;,&quot;startArrow&quot;:&quot;none&quot;,&quot;endArrow&quot;:&quot;none&quot;,&quot;segment&quot;:10,&quot;curved&quot;:1,&quot;sourcePerimeterSpacing&quot;:0,&quot;targetPerimeterSpacing&quot;:0};fontFamily=Comic Sans MS;" vertex="1" parent="1">
          <mxGeometry x="895" y="350" width="90" height="30" as="geometry" />
        </mxCell>
        <mxCell id="6X7HV17gJ3_o3CEE1zzu-46" value="" style="edgeStyle=entityRelationEdgeStyle;startArrow=none;endArrow=none;segment=10;curved=1;sourcePerimeterSpacing=0;targetPerimeterSpacing=0;rounded=0;fontFamily=Comic Sans MS;" edge="1" target="6X7HV17gJ3_o3CEE1zzu-45" parent="1" source="6X7HV17gJ3_o3CEE1zzu-43">
          <mxGeometry x="925" y="385" width="80" height="20" as="geometry" />
        </mxCell>
        <mxCell id="6X7HV17gJ3_o3CEE1zzu-47" value="更快捷的交互" style="whiteSpace=wrap;html=1;shape=partialRectangle;top=0;left=0;bottom=1;right=0;points=[[0,1],[1,1]];fillColor=none;align=center;verticalAlign=bottom;routingCenterY=0.5;snapToPoint=1;recursiveResize=0;autosize=1;treeFolding=1;treeMoving=1;newEdgeStyle={&quot;edgeStyle&quot;:&quot;entityRelationEdgeStyle&quot;,&quot;startArrow&quot;:&quot;none&quot;,&quot;endArrow&quot;:&quot;none&quot;,&quot;segment&quot;:10,&quot;curved&quot;:1,&quot;sourcePerimeterSpacing&quot;:0,&quot;targetPerimeterSpacing&quot;:0};fontFamily=Comic Sans MS;" vertex="1" parent="1">
          <mxGeometry x="-140" y="-10" width="110" height="30" as="geometry" />
        </mxCell>
        <mxCell id="6X7HV17gJ3_o3CEE1zzu-48" value="" style="edgeStyle=entityRelationEdgeStyle;startArrow=none;endArrow=none;segment=10;curved=1;sourcePerimeterSpacing=0;targetPerimeterSpacing=0;rounded=0;fontFamily=Comic Sans MS;" edge="1" target="6X7HV17gJ3_o3CEE1zzu-47" parent="1" source="6X7HV17gJ3_o3CEE1zzu-15">
          <mxGeometry x="-155" y="55" width="80" height="20" as="geometry" />
        </mxCell>
        <mxCell id="6X7HV17gJ3_o3CEE1zzu-49" value="DiffUTE, SceneTextGen&lt;div&gt;载入 MLLMs&lt;/div&gt;" style="whiteSpace=wrap;html=1;shape=partialRectangle;top=0;left=0;bottom=1;right=0;points=[[0,1],[1,1]];fillColor=none;align=center;verticalAlign=bottom;routingCenterY=0.5;snapToPoint=1;recursiveResize=0;autosize=1;treeFolding=1;treeMoving=1;newEdgeStyle={&quot;edgeStyle&quot;:&quot;entityRelationEdgeStyle&quot;,&quot;startArrow&quot;:&quot;none&quot;,&quot;endArrow&quot;:&quot;none&quot;,&quot;segment&quot;:10,&quot;curved&quot;:1,&quot;sourcePerimeterSpacing&quot;:0,&quot;targetPerimeterSpacing&quot;:0};fontFamily=Comic Sans MS;" vertex="1" parent="1">
          <mxGeometry x="-355" y="-38" width="180" height="40" as="geometry" />
        </mxCell>
        <mxCell id="6X7HV17gJ3_o3CEE1zzu-50" value="" style="edgeStyle=entityRelationEdgeStyle;startArrow=none;endArrow=none;segment=10;curved=1;sourcePerimeterSpacing=0;targetPerimeterSpacing=0;rounded=0;fontFamily=Comic Sans MS;" edge="1" target="6X7HV17gJ3_o3CEE1zzu-49" parent="1" source="6X7HV17gJ3_o3CEE1zzu-47">
          <mxGeometry x="-300" y="55" width="80" height="20" as="geometry" />
        </mxCell>
        <mxCell id="6X7HV17gJ3_o3CEE1zzu-51" value="character-level embedding&lt;div&gt;类 CLIP 结构&lt;/div&gt;" style="whiteSpace=wrap;html=1;shape=partialRectangle;top=0;left=0;bottom=1;right=0;points=[[0,1],[1,1]];fillColor=none;align=center;verticalAlign=bottom;routingCenterY=0.5;snapToPoint=1;recursiveResize=0;autosize=1;treeFolding=1;treeMoving=1;newEdgeStyle={&quot;edgeStyle&quot;:&quot;entityRelationEdgeStyle&quot;,&quot;startArrow&quot;:&quot;none&quot;,&quot;endArrow&quot;:&quot;none&quot;,&quot;segment&quot;:10,&quot;curved&quot;:1,&quot;sourcePerimeterSpacing&quot;:0,&quot;targetPerimeterSpacing&quot;:0};fontFamily=Comic Sans MS;" vertex="1" parent="1">
          <mxGeometry x="590" y="420" width="190" height="40" as="geometry" />
        </mxCell>
        <mxCell id="6X7HV17gJ3_o3CEE1zzu-52" value="" style="edgeStyle=entityRelationEdgeStyle;startArrow=none;endArrow=none;segment=10;curved=1;sourcePerimeterSpacing=0;targetPerimeterSpacing=0;rounded=0;fontFamily=Comic Sans MS;" edge="1" target="6X7HV17gJ3_o3CEE1zzu-51" parent="1" source="6X7HV17gJ3_o3CEE1zzu-4">
          <mxGeometry x="615" y="365" width="80" height="20" as="geometry" />
        </mxCell>
        <mxCell id="6X7HV17gJ3_o3CEE1zzu-53" value="UDiffText" style="whiteSpace=wrap;html=1;shape=partialRectangle;top=0;left=0;bottom=1;right=0;points=[[0,1],[1,1]];fillColor=none;align=center;verticalAlign=bottom;routingCenterY=0.5;snapToPoint=1;recursiveResize=0;autosize=1;treeFolding=1;treeMoving=1;newEdgeStyle={&quot;edgeStyle&quot;:&quot;entityRelationEdgeStyle&quot;,&quot;startArrow&quot;:&quot;none&quot;,&quot;endArrow&quot;:&quot;none&quot;,&quot;segment&quot;:10,&quot;curved&quot;:1,&quot;sourcePerimeterSpacing&quot;:0,&quot;targetPerimeterSpacing&quot;:0};fontFamily=Comic Sans MS;" vertex="1" parent="1">
          <mxGeometry x="820" y="410" width="100" height="30" as="geometry" />
        </mxCell>
        <mxCell id="6X7HV17gJ3_o3CEE1zzu-54" value="" style="edgeStyle=entityRelationEdgeStyle;startArrow=none;endArrow=none;segment=10;curved=1;sourcePerimeterSpacing=0;targetPerimeterSpacing=0;rounded=0;fontFamily=Comic Sans MS;" edge="1" target="6X7HV17gJ3_o3CEE1zzu-53" parent="1" source="6X7HV17gJ3_o3CEE1zzu-51">
          <mxGeometry x="830" y="430" width="80" height="20" as="geometry" />
        </mxCell>
        <mxCell id="6X7HV17gJ3_o3CEE1zzu-55" value="UDiffText&lt;div&gt;计算 ROI&lt;/div&gt;" style="whiteSpace=wrap;html=1;shape=partialRectangle;top=0;left=0;bottom=1;right=0;points=[[0,1],[1,1]];fillColor=none;align=center;verticalAlign=bottom;routingCenterY=0.5;snapToPoint=1;recursiveResize=0;autosize=1;treeFolding=1;treeMoving=1;newEdgeStyle={&quot;edgeStyle&quot;:&quot;entityRelationEdgeStyle&quot;,&quot;startArrow&quot;:&quot;none&quot;,&quot;endArrow&quot;:&quot;none&quot;,&quot;segment&quot;:10,&quot;curved&quot;:1,&quot;sourcePerimeterSpacing&quot;:0,&quot;targetPerimeterSpacing&quot;:0};fontFamily=Comic Sans MS;" vertex="1" parent="1">
          <mxGeometry x="735" y="230" width="100" height="40" as="geometry" />
        </mxCell>
        <mxCell id="6X7HV17gJ3_o3CEE1zzu-56" value="" style="edgeStyle=entityRelationEdgeStyle;startArrow=none;endArrow=none;segment=10;curved=1;sourcePerimeterSpacing=0;targetPerimeterSpacing=0;rounded=0;fontFamily=Comic Sans MS;" edge="1" target="6X7HV17gJ3_o3CEE1zzu-55" parent="1" source="6X7HV17gJ3_o3CEE1zzu-23">
          <mxGeometry x="785" y="305" width="80" height="20" as="geometry" />
        </mxCell>
        <mxCell id="6X7HV17gJ3_o3CEE1zzu-57" value="character-level loss" style="whiteSpace=wrap;html=1;shape=partialRectangle;top=0;left=0;bottom=1;right=0;points=[[0,1],[1,1]];fillColor=none;align=center;verticalAlign=bottom;routingCenterY=0.5;snapToPoint=1;recursiveResize=0;autosize=1;treeFolding=1;treeMoving=1;newEdgeStyle={&quot;edgeStyle&quot;:&quot;entityRelationEdgeStyle&quot;,&quot;startArrow&quot;:&quot;none&quot;,&quot;endArrow&quot;:&quot;none&quot;,&quot;segment&quot;:10,&quot;curved&quot;:1,&quot;sourcePerimeterSpacing&quot;:0,&quot;targetPerimeterSpacing&quot;:0};fontFamily=Comic Sans MS;" vertex="1" parent="1">
          <mxGeometry x="-195" y="500" width="150" height="30" as="geometry" />
        </mxCell>
        <mxCell id="6X7HV17gJ3_o3CEE1zzu-58" value="" style="edgeStyle=entityRelationEdgeStyle;startArrow=none;endArrow=none;segment=10;curved=1;sourcePerimeterSpacing=0;targetPerimeterSpacing=0;rounded=0;fontFamily=Comic Sans MS;" edge="1" target="6X7HV17gJ3_o3CEE1zzu-57" parent="1" source="6X7HV17gJ3_o3CEE1zzu-13">
          <mxGeometry x="-170" y="335" width="80" height="20" as="geometry" />
        </mxCell>
        <mxCell id="6X7HV17gJ3_o3CEE1zzu-59" value="UDiffText&lt;div&gt;cross attn 点亮对应 mask&lt;/div&gt;" style="whiteSpace=wrap;html=1;shape=partialRectangle;top=0;left=0;bottom=1;right=0;points=[[0,1],[1,1]];fillColor=none;align=center;verticalAlign=bottom;routingCenterY=0.5;snapToPoint=1;recursiveResize=0;autosize=1;treeFolding=1;treeMoving=1;newEdgeStyle={&quot;edgeStyle&quot;:&quot;entityRelationEdgeStyle&quot;,&quot;startArrow&quot;:&quot;none&quot;,&quot;endArrow&quot;:&quot;none&quot;,&quot;segment&quot;:10,&quot;curved&quot;:1,&quot;sourcePerimeterSpacing&quot;:0,&quot;targetPerimeterSpacing&quot;:0};fontFamily=Comic Sans MS;" vertex="1" parent="1">
          <mxGeometry x="-413" y="470" width="180" height="40" as="geometry" />
        </mxCell>
        <mxCell id="6X7HV17gJ3_o3CEE1zzu-60" value="" style="edgeStyle=entityRelationEdgeStyle;startArrow=none;endArrow=none;segment=10;curved=1;sourcePerimeterSpacing=0;targetPerimeterSpacing=0;rounded=0;fontFamily=Comic Sans MS;" edge="1" target="6X7HV17gJ3_o3CEE1zzu-59" parent="1" source="6X7HV17gJ3_o3CEE1zzu-57">
          <mxGeometry x="-350" y="345" width="80" height="20" as="geometry" />
        </mxCell>
        <mxCell id="6X7HV17gJ3_o3CEE1zzu-63" value="OCR loss" style="whiteSpace=wrap;html=1;shape=partialRectangle;top=0;left=0;bottom=1;right=0;points=[[0,1],[1,1]];fillColor=none;align=center;verticalAlign=bottom;routingCenterY=0.5;snapToPoint=1;recursiveResize=0;autosize=1;treeFolding=1;treeMoving=1;newEdgeStyle={&quot;edgeStyle&quot;:&quot;entityRelationEdgeStyle&quot;,&quot;startArrow&quot;:&quot;none&quot;,&quot;endArrow&quot;:&quot;none&quot;,&quot;segment&quot;:10,&quot;curved&quot;:1,&quot;sourcePerimeterSpacing&quot;:0,&quot;targetPerimeterSpacing&quot;:0};fontFamily=Comic Sans MS;" vertex="1" parent="1">
          <mxGeometry x="-145" y="540" width="90" height="30" as="geometry" />
        </mxCell>
        <mxCell id="6X7HV17gJ3_o3CEE1zzu-64" value="" style="edgeStyle=entityRelationEdgeStyle;startArrow=none;endArrow=none;segment=10;curved=1;sourcePerimeterSpacing=0;targetPerimeterSpacing=0;rounded=0;fontFamily=Comic Sans MS;" edge="1" target="6X7HV17gJ3_o3CEE1zzu-63" parent="1" source="6X7HV17gJ3_o3CEE1zzu-13">
          <mxGeometry x="-170" y="335" width="80" height="20" as="geometry" />
        </mxCell>
        <mxCell id="6X7HV17gJ3_o3CEE1zzu-65" value="UDiffText" style="whiteSpace=wrap;html=1;shape=partialRectangle;top=0;left=0;bottom=1;right=0;points=[[0,1],[1,1]];fillColor=none;align=center;verticalAlign=bottom;routingCenterY=0.5;snapToPoint=1;recursiveResize=0;autosize=1;treeFolding=1;treeMoving=1;newEdgeStyle={&quot;edgeStyle&quot;:&quot;entityRelationEdgeStyle&quot;,&quot;startArrow&quot;:&quot;none&quot;,&quot;endArrow&quot;:&quot;none&quot;,&quot;segment&quot;:10,&quot;curved&quot;:1,&quot;sourcePerimeterSpacing&quot;:0,&quot;targetPerimeterSpacing&quot;:0};fontFamily=Comic Sans MS;" vertex="1" parent="1">
          <mxGeometry x="-285" y="560" width="100" height="30" as="geometry" />
        </mxCell>
        <mxCell id="6X7HV17gJ3_o3CEE1zzu-66" value="" style="edgeStyle=entityRelationEdgeStyle;startArrow=none;endArrow=none;segment=10;curved=1;sourcePerimeterSpacing=0;targetPerimeterSpacing=0;rounded=0;fontFamily=Comic Sans MS;" edge="1" target="6X7HV17gJ3_o3CEE1zzu-65" parent="1" source="6X7HV17gJ3_o3CEE1zzu-63">
          <mxGeometry x="-285" y="385" width="80" height="20" as="geometry" />
        </mxCell>
        <mxCell id="6X7HV17gJ3_o3CEE1zzu-67" value="推理时优化" style="whiteSpace=wrap;html=1;shape=partialRectangle;top=0;left=0;bottom=1;right=0;points=[[0,1],[1,1]];fillColor=none;align=center;verticalAlign=bottom;routingCenterY=0.5;snapToPoint=1;recursiveResize=0;autosize=1;treeFolding=1;treeMoving=1;newEdgeStyle={&quot;edgeStyle&quot;:&quot;entityRelationEdgeStyle&quot;,&quot;startArrow&quot;:&quot;none&quot;,&quot;endArrow&quot;:&quot;none&quot;,&quot;segment&quot;:10,&quot;curved&quot;:1,&quot;sourcePerimeterSpacing&quot;:0,&quot;targetPerimeterSpacing&quot;:0};fontFamily=Comic Sans MS;" vertex="1" parent="1">
          <mxGeometry x="580" y="490" width="100" height="30" as="geometry" />
        </mxCell>
        <mxCell id="6X7HV17gJ3_o3CEE1zzu-68" value="" style="edgeStyle=entityRelationEdgeStyle;startArrow=none;endArrow=none;segment=10;curved=1;sourcePerimeterSpacing=0;targetPerimeterSpacing=0;rounded=0;fontFamily=Comic Sans MS;" edge="1" target="6X7HV17gJ3_o3CEE1zzu-67" parent="1" source="6X7HV17gJ3_o3CEE1zzu-4">
          <mxGeometry x="615" y="365" width="80" height="20" as="geometry" />
        </mxCell>
        <mxCell id="6X7HV17gJ3_o3CEE1zzu-69" value="UDiffText&lt;div&gt;类似 CFG 的梯度引导&lt;/div&gt;" style="whiteSpace=wrap;html=1;shape=partialRectangle;top=0;left=0;bottom=1;right=0;points=[[0,1],[1,1]];fillColor=none;align=center;verticalAlign=bottom;routingCenterY=0.5;snapToPoint=1;recursiveResize=0;autosize=1;treeFolding=1;treeMoving=1;newEdgeStyle={&quot;edgeStyle&quot;:&quot;entityRelationEdgeStyle&quot;,&quot;startArrow&quot;:&quot;none&quot;,&quot;endArrow&quot;:&quot;none&quot;,&quot;segment&quot;:10,&quot;curved&quot;:1,&quot;sourcePerimeterSpacing&quot;:0,&quot;targetPerimeterSpacing&quot;:0};fontFamily=Comic Sans MS;" vertex="1" parent="1">
          <mxGeometry x="735" y="460" width="150" height="40" as="geometry" />
        </mxCell>
        <mxCell id="6X7HV17gJ3_o3CEE1zzu-70" value="" style="edgeStyle=entityRelationEdgeStyle;startArrow=none;endArrow=none;segment=10;curved=1;sourcePerimeterSpacing=0;targetPerimeterSpacing=0;rounded=0;fontFamily=Comic Sans MS;" edge="1" target="6X7HV17gJ3_o3CEE1zzu-69" parent="1" source="6X7HV17gJ3_o3CEE1zzu-67">
          <mxGeometry x="760" y="495" width="80" height="20" as="geometry" />
        </mxCell>
        <mxCell id="6X7HV17gJ3_o3CEE1zzu-71" value="FID" style="whiteSpace=wrap;html=1;shape=partialRectangle;top=0;left=0;bottom=1;right=0;points=[[0,1],[1,1]];fillColor=none;align=center;verticalAlign=bottom;routingCenterY=0.5;snapToPoint=1;recursiveResize=0;autosize=1;treeFolding=1;treeMoving=1;newEdgeStyle={&quot;edgeStyle&quot;:&quot;entityRelationEdgeStyle&quot;,&quot;startArrow&quot;:&quot;none&quot;,&quot;endArrow&quot;:&quot;none&quot;,&quot;segment&quot;:10,&quot;curved&quot;:1,&quot;sourcePerimeterSpacing&quot;:0,&quot;targetPerimeterSpacing&quot;:0};fontFamily=Comic Sans MS;" vertex="1" parent="1">
          <mxGeometry x="-155" y="155" width="60" height="30" as="geometry" />
        </mxCell>
        <mxCell id="6X7HV17gJ3_o3CEE1zzu-72" value="" style="edgeStyle=entityRelationEdgeStyle;startArrow=none;endArrow=none;segment=10;curved=1;sourcePerimeterSpacing=0;targetPerimeterSpacing=0;rounded=0;fontFamily=Comic Sans MS;" edge="1" target="6X7HV17gJ3_o3CEE1zzu-71" parent="1" source="6X7HV17gJ3_o3CEE1zzu-27">
          <mxGeometry x="-215" y="190" width="80" height="20" as="geometry" />
        </mxCell>
        <mxCell id="6X7HV17gJ3_o3CEE1zzu-73" value="MARIO-10M" style="whiteSpace=wrap;html=1;shape=partialRectangle;top=0;left=0;bottom=1;right=0;points=[[0,1],[1,1]];fillColor=none;align=center;verticalAlign=bottom;routingCenterY=0.5;snapToPoint=1;recursiveResize=0;autosize=1;treeFolding=1;treeMoving=1;newEdgeStyle={&quot;edgeStyle&quot;:&quot;entityRelationEdgeStyle&quot;,&quot;startArrow&quot;:&quot;none&quot;,&quot;endArrow&quot;:&quot;none&quot;,&quot;segment&quot;:10,&quot;curved&quot;:1,&quot;sourcePerimeterSpacing&quot;:0,&quot;targetPerimeterSpacing&quot;:0};fontFamily=Comic Sans MS;" vertex="1" parent="1">
          <mxGeometry x="-155" y="230" width="110" height="30" as="geometry" />
        </mxCell>
        <mxCell id="6X7HV17gJ3_o3CEE1zzu-74" value="" style="edgeStyle=entityRelationEdgeStyle;startArrow=none;endArrow=none;segment=10;curved=1;sourcePerimeterSpacing=0;targetPerimeterSpacing=0;rounded=0;fontFamily=Comic Sans MS;" edge="1" target="6X7HV17gJ3_o3CEE1zzu-73" parent="1" source="6X7HV17gJ3_o3CEE1zzu-11">
          <mxGeometry x="-170" y="265" width="80" height="20" as="geometry" />
        </mxCell>
        <mxCell id="6X7HV17gJ3_o3CEE1zzu-75" value="TextDiffuser 提出&lt;div&gt;10M&lt;/div&gt;" style="whiteSpace=wrap;html=1;shape=partialRectangle;top=0;left=0;bottom=1;right=0;points=[[0,1],[1,1]];fillColor=none;align=center;verticalAlign=bottom;routingCenterY=0.5;snapToPoint=1;recursiveResize=0;autosize=1;treeFolding=1;treeMoving=1;newEdgeStyle={&quot;edgeStyle&quot;:&quot;entityRelationEdgeStyle&quot;,&quot;startArrow&quot;:&quot;none&quot;,&quot;endArrow&quot;:&quot;none&quot;,&quot;segment&quot;:10,&quot;curved&quot;:1,&quot;sourcePerimeterSpacing&quot;:0,&quot;targetPerimeterSpacing&quot;:0};fontFamily=Comic Sans MS;" vertex="1" parent="1">
          <mxGeometry x="-330" y="205" width="140" height="40" as="geometry" />
        </mxCell>
        <mxCell id="6X7HV17gJ3_o3CEE1zzu-76" value="" style="edgeStyle=entityRelationEdgeStyle;startArrow=none;endArrow=none;segment=10;curved=1;sourcePerimeterSpacing=0;targetPerimeterSpacing=0;rounded=0;fontFamily=Comic Sans MS;" edge="1" target="6X7HV17gJ3_o3CEE1zzu-75" parent="1" source="6X7HV17gJ3_o3CEE1zzu-73">
          <mxGeometry x="-300" y="235" width="80" height="20" as="geometry" />
        </mxCell>
        <mxCell id="6X7HV17gJ3_o3CEE1zzu-77" value="&lt;div style=&quot;orphans: 4;&quot;&gt;&lt;font color=&quot;#333333&quot;&gt;&lt;span style=&quot;white-space-collapse: preserve;&quot;&gt;LPIPS&lt;/span&gt;&lt;/font&gt;&lt;/div&gt;&lt;div style=&quot;orphans: 4;&quot;&gt;&lt;font color=&quot;#333333&quot;&gt;&lt;span style=&quot;white-space-collapse: preserve;&quot;&gt;反应图像的相似度&lt;/span&gt;&lt;/font&gt;&lt;/div&gt;" style="whiteSpace=wrap;html=1;shape=partialRectangle;top=0;left=0;bottom=1;right=0;points=[[0,1],[1,1]];fillColor=none;align=center;verticalAlign=bottom;routingCenterY=0.5;snapToPoint=1;recursiveResize=0;autosize=1;treeFolding=1;treeMoving=1;newEdgeStyle={&quot;edgeStyle&quot;:&quot;entityRelationEdgeStyle&quot;,&quot;startArrow&quot;:&quot;none&quot;,&quot;endArrow&quot;:&quot;none&quot;,&quot;segment&quot;:10,&quot;curved&quot;:1,&quot;sourcePerimeterSpacing&quot;:0,&quot;targetPerimeterSpacing&quot;:0};fontFamily=Comic Sans MS;" vertex="1" parent="1">
          <mxGeometry x="-233" y="50" width="140" height="40" as="geometry" />
        </mxCell>
        <mxCell id="6X7HV17gJ3_o3CEE1zzu-78" value="" style="edgeStyle=entityRelationEdgeStyle;startArrow=none;endArrow=none;segment=10;curved=1;sourcePerimeterSpacing=0;targetPerimeterSpacing=0;rounded=0;fontFamily=Comic Sans MS;" edge="1" target="6X7HV17gJ3_o3CEE1zzu-77" parent="1" source="6X7HV17gJ3_o3CEE1zzu-27">
          <mxGeometry x="-215" y="190" width="80" height="20" as="geometry" />
        </mxCell>
        <mxCell id="6X7HV17gJ3_o3CEE1zzu-79" value="&lt;div&gt;DreamText&lt;/div&gt;通过 cross attn 预测 character-level mask" style="whiteSpace=wrap;html=1;shape=partialRectangle;top=0;left=0;bottom=1;right=0;points=[[0,1],[1,1]];fillColor=none;align=center;verticalAlign=bottom;routingCenterY=0.5;snapToPoint=1;recursiveResize=0;autosize=1;treeFolding=1;treeMoving=1;newEdgeStyle={&quot;edgeStyle&quot;:&quot;entityRelationEdgeStyle&quot;,&quot;startArrow&quot;:&quot;none&quot;,&quot;endArrow&quot;:&quot;none&quot;,&quot;segment&quot;:10,&quot;curved&quot;:1,&quot;sourcePerimeterSpacing&quot;:0,&quot;targetPerimeterSpacing&quot;:0};fontFamily=Comic Sans MS;" vertex="1" parent="1">
          <mxGeometry x="-445" width="270" height="40" as="geometry" />
        </mxCell>
        <mxCell id="6X7HV17gJ3_o3CEE1zzu-80" value="" style="edgeStyle=entityRelationEdgeStyle;startArrow=none;endArrow=none;segment=10;curved=1;sourcePerimeterSpacing=0;targetPerimeterSpacing=0;rounded=0;fontFamily=Comic Sans MS;" edge="1" target="6X7HV17gJ3_o3CEE1zzu-79" parent="1" source="6X7HV17gJ3_o3CEE1zzu-47">
          <mxGeometry x="-300" y="55" width="80" height="20" as="geometry" />
        </mxCell>
        <mxCell id="6X7HV17gJ3_o3CEE1zzu-81" value="DreamText&lt;div&gt;额外监督 mask 区域的重建损失；同时监督 ROI 尽可能值更大&lt;/div&gt;" style="whiteSpace=wrap;html=1;shape=partialRectangle;top=0;left=0;bottom=1;right=0;points=[[0,1],[1,1]];fillColor=none;align=center;verticalAlign=bottom;routingCenterY=0.5;snapToPoint=1;recursiveResize=0;autosize=1;treeFolding=1;treeMoving=1;newEdgeStyle={&quot;edgeStyle&quot;:&quot;entityRelationEdgeStyle&quot;,&quot;startArrow&quot;:&quot;none&quot;,&quot;endArrow&quot;:&quot;none&quot;,&quot;segment&quot;:10,&quot;curved&quot;:1,&quot;sourcePerimeterSpacing&quot;:0,&quot;targetPerimeterSpacing&quot;:0};fontFamily=Comic Sans MS;" vertex="1" parent="1">
          <mxGeometry x="-603" y="505" width="370" height="40" as="geometry" />
        </mxCell>
        <mxCell id="6X7HV17gJ3_o3CEE1zzu-82" value="" style="edgeStyle=entityRelationEdgeStyle;startArrow=none;endArrow=none;segment=10;curved=1;sourcePerimeterSpacing=0;targetPerimeterSpacing=0;rounded=0;fontFamily=Comic Sans MS;" edge="1" target="6X7HV17gJ3_o3CEE1zzu-81" parent="1" source="6X7HV17gJ3_o3CEE1zzu-57">
          <mxGeometry x="-355" y="345" width="80" height="20" as="geometry" />
        </mxCell>
        <mxCell id="6X7HV17gJ3_o3CEE1zzu-83" value="DreamText" style="whiteSpace=wrap;html=1;shape=partialRectangle;top=0;left=0;bottom=1;right=0;points=[[0,1],[1,1]];fillColor=none;align=center;verticalAlign=bottom;routingCenterY=0.5;snapToPoint=1;recursiveResize=0;autosize=1;treeFolding=1;treeMoving=1;newEdgeStyle={&quot;edgeStyle&quot;:&quot;entityRelationEdgeStyle&quot;,&quot;startArrow&quot;:&quot;none&quot;,&quot;endArrow&quot;:&quot;none&quot;,&quot;segment&quot;:10,&quot;curved&quot;:1,&quot;sourcePerimeterSpacing&quot;:0,&quot;targetPerimeterSpacing&quot;:0};fontFamily=Comic Sans MS;" vertex="1" parent="1">
          <mxGeometry x="-285" y="600" width="100" height="30" as="geometry" />
        </mxCell>
        <mxCell id="6X7HV17gJ3_o3CEE1zzu-84" value="" style="edgeStyle=entityRelationEdgeStyle;startArrow=none;endArrow=none;segment=10;curved=1;sourcePerimeterSpacing=0;targetPerimeterSpacing=0;rounded=0;fontFamily=Comic Sans MS;" edge="1" target="6X7HV17gJ3_o3CEE1zzu-83" parent="1" source="6X7HV17gJ3_o3CEE1zzu-63">
          <mxGeometry x="-305" y="385" width="80" height="20" as="geometry" />
        </mxCell>
        <mxCell id="6X7HV17gJ3_o3CEE1zzu-85" value="对比损失，consine similarity" style="whiteSpace=wrap;html=1;shape=partialRectangle;top=0;left=0;bottom=1;right=0;points=[[0,1],[1,1]];fillColor=none;align=center;verticalAlign=bottom;routingCenterY=0.5;snapToPoint=1;recursiveResize=0;autosize=1;treeFolding=1;treeMoving=1;newEdgeStyle={&quot;edgeStyle&quot;:&quot;entityRelationEdgeStyle&quot;,&quot;startArrow&quot;:&quot;none&quot;,&quot;endArrow&quot;:&quot;none&quot;,&quot;segment&quot;:10,&quot;curved&quot;:1,&quot;sourcePerimeterSpacing&quot;:0,&quot;targetPerimeterSpacing&quot;:0};fontFamily=Comic Sans MS;" vertex="1" parent="1">
          <mxGeometry x="-263" y="420" width="200" height="30" as="geometry" />
        </mxCell>
        <mxCell id="6X7HV17gJ3_o3CEE1zzu-86" value="" style="edgeStyle=entityRelationEdgeStyle;startArrow=none;endArrow=none;segment=10;curved=1;sourcePerimeterSpacing=0;targetPerimeterSpacing=0;rounded=0;fontFamily=Comic Sans MS;" edge="1" target="6X7HV17gJ3_o3CEE1zzu-85" parent="1" source="6X7HV17gJ3_o3CEE1zzu-13">
          <mxGeometry x="-170" y="495" width="80" height="20" as="geometry" />
        </mxCell>
        <mxCell id="6X7HV17gJ3_o3CEE1zzu-87" value="DreamText&lt;div&gt;text embedding 和 visual embedding 计算 cosine sim&lt;/div&gt;" style="whiteSpace=wrap;html=1;shape=partialRectangle;top=0;left=0;bottom=1;right=0;points=[[0,1],[1,1]];fillColor=none;align=center;verticalAlign=bottom;routingCenterY=0.5;snapToPoint=1;recursiveResize=0;autosize=1;treeFolding=1;treeMoving=1;newEdgeStyle={&quot;edgeStyle&quot;:&quot;entityRelationEdgeStyle&quot;,&quot;startArrow&quot;:&quot;none&quot;,&quot;endArrow&quot;:&quot;none&quot;,&quot;segment&quot;:10,&quot;curved&quot;:1,&quot;sourcePerimeterSpacing&quot;:0,&quot;targetPerimeterSpacing&quot;:0};fontFamily=Comic Sans MS;" vertex="1" parent="1">
          <mxGeometry x="-625" y="390" width="330" height="40" as="geometry" />
        </mxCell>
        <mxCell id="6X7HV17gJ3_o3CEE1zzu-88" value="" style="edgeStyle=entityRelationEdgeStyle;startArrow=none;endArrow=none;segment=10;curved=1;sourcePerimeterSpacing=0;targetPerimeterSpacing=0;rounded=0;fontFamily=Comic Sans MS;" edge="1" target="6X7HV17gJ3_o3CEE1zzu-87" parent="1" source="6X7HV17gJ3_o3CEE1zzu-85">
          <mxGeometry x="-418" y="425" width="80" height="20" as="geometry" />
        </mxCell>
        <mxCell id="6X7HV17gJ3_o3CEE1zzu-89" value="SynthText&lt;div&gt;人造数据集 + 脚本&lt;/div&gt;" style="whiteSpace=wrap;html=1;shape=partialRectangle;top=0;left=0;bottom=1;right=0;points=[[0,1],[1,1]];fillColor=none;align=center;verticalAlign=bottom;routingCenterY=0.5;snapToPoint=1;recursiveResize=0;autosize=1;treeFolding=1;treeMoving=1;newEdgeStyle={&quot;edgeStyle&quot;:&quot;entityRelationEdgeStyle&quot;,&quot;startArrow&quot;:&quot;none&quot;,&quot;endArrow&quot;:&quot;none&quot;,&quot;segment&quot;:10,&quot;curved&quot;:1,&quot;sourcePerimeterSpacing&quot;:0,&quot;targetPerimeterSpacing&quot;:0};fontFamily=Comic Sans MS;" vertex="1" parent="1">
          <mxGeometry x="-180" y="270" width="140" height="40" as="geometry" />
        </mxCell>
        <mxCell id="6X7HV17gJ3_o3CEE1zzu-90" value="" style="edgeStyle=entityRelationEdgeStyle;startArrow=none;endArrow=none;segment=10;curved=1;sourcePerimeterSpacing=0;targetPerimeterSpacing=0;rounded=0;fontFamily=Comic Sans MS;" edge="1" target="6X7HV17gJ3_o3CEE1zzu-89" parent="1" source="6X7HV17gJ3_o3CEE1zzu-11">
          <mxGeometry x="-170" y="265" width="80" height="20" as="geometry" />
        </mxCell>
        <mxCell id="6X7HV17gJ3_o3CEE1zzu-91" value="DreamText 提出，还原 gt 的文本和填入新文本分别评估" style="whiteSpace=wrap;html=1;shape=partialRectangle;top=0;left=0;bottom=1;right=0;points=[[0,1],[1,1]];fillColor=none;align=center;verticalAlign=bottom;routingCenterY=0.5;snapToPoint=1;recursiveResize=0;autosize=1;treeFolding=1;treeMoving=1;newEdgeStyle={&quot;edgeStyle&quot;:&quot;entityRelationEdgeStyle&quot;,&quot;startArrow&quot;:&quot;none&quot;,&quot;endArrow&quot;:&quot;none&quot;,&quot;segment&quot;:10,&quot;curved&quot;:1,&quot;sourcePerimeterSpacing&quot;:0,&quot;targetPerimeterSpacing&quot;:0};fontFamily=Comic Sans MS;" vertex="1" parent="1">
          <mxGeometry x="-428" y="95" width="340" height="30" as="geometry" />
        </mxCell>
        <mxCell id="6X7HV17gJ3_o3CEE1zzu-92" value="" style="edgeStyle=entityRelationEdgeStyle;startArrow=none;endArrow=none;segment=10;curved=1;sourcePerimeterSpacing=0;targetPerimeterSpacing=0;rounded=0;fontFamily=Comic Sans MS;" edge="1" target="6X7HV17gJ3_o3CEE1zzu-91" parent="1" source="6X7HV17gJ3_o3CEE1zzu-27">
          <mxGeometry x="-215" y="145" width="80" height="20" as="geometry" />
        </mxCell>
        <mxCell id="6X7HV17gJ3_o3CEE1zzu-95" value="监督前景和背景" style="whiteSpace=wrap;html=1;shape=partialRectangle;top=0;left=0;bottom=1;right=0;points=[[0,1],[1,1]];fillColor=none;align=center;verticalAlign=bottom;routingCenterY=0.5;snapToPoint=1;recursiveResize=0;autosize=1;treeFolding=1;treeMoving=1;newEdgeStyle={&quot;edgeStyle&quot;:&quot;entityRelationEdgeStyle&quot;,&quot;startArrow&quot;:&quot;none&quot;,&quot;endArrow&quot;:&quot;none&quot;,&quot;segment&quot;:10,&quot;curved&quot;:1,&quot;sourcePerimeterSpacing&quot;:0,&quot;targetPerimeterSpacing&quot;:0};fontFamily=Comic Sans MS;" vertex="1" parent="1">
          <mxGeometry x="-203" y="645" width="120" height="30" as="geometry" />
        </mxCell>
        <mxCell id="6X7HV17gJ3_o3CEE1zzu-96" value="" style="edgeStyle=entityRelationEdgeStyle;startArrow=none;endArrow=none;segment=10;curved=1;sourcePerimeterSpacing=0;targetPerimeterSpacing=0;rounded=0;fontFamily=Comic Sans MS;" edge="1" target="6X7HV17gJ3_o3CEE1zzu-95" parent="1" source="6X7HV17gJ3_o3CEE1zzu-13">
          <mxGeometry x="-170" y="405" width="80" height="20" as="geometry" />
        </mxCell>
        <mxCell id="6X7HV17gJ3_o3CEE1zzu-97" value="SceneTextGen&lt;div&gt;通过 mask 分别监督前、背景&lt;/div&gt;" style="whiteSpace=wrap;html=1;shape=partialRectangle;top=0;left=0;bottom=1;right=0;points=[[0,1],[1,1]];fillColor=none;align=center;verticalAlign=bottom;routingCenterY=0.5;snapToPoint=1;recursiveResize=0;autosize=1;treeFolding=1;treeMoving=1;newEdgeStyle={&quot;edgeStyle&quot;:&quot;entityRelationEdgeStyle&quot;,&quot;startArrow&quot;:&quot;none&quot;,&quot;endArrow&quot;:&quot;none&quot;,&quot;segment&quot;:10,&quot;curved&quot;:1,&quot;sourcePerimeterSpacing&quot;:0,&quot;targetPerimeterSpacing&quot;:0};fontFamily=Comic Sans MS;" vertex="1" parent="1">
          <mxGeometry x="-445" y="620" width="200" height="40" as="geometry" />
        </mxCell>
        <mxCell id="6X7HV17gJ3_o3CEE1zzu-98" value="" style="edgeStyle=entityRelationEdgeStyle;startArrow=none;endArrow=none;segment=10;curved=1;sourcePerimeterSpacing=0;targetPerimeterSpacing=0;rounded=0;fontFamily=Comic Sans MS;" edge="1" target="6X7HV17gJ3_o3CEE1zzu-97" parent="1" source="6X7HV17gJ3_o3CEE1zzu-95">
          <mxGeometry x="-383" y="560" width="80" height="20" as="geometry" />
        </mxCell>
        <mxCell id="6X7HV17gJ3_o3CEE1zzu-99" value="loss func" style="whiteSpace=wrap;html=1;shape=partialRectangle;top=0;left=0;bottom=1;right=0;points=[[0,1],[1,1]];fillColor=none;align=center;verticalAlign=bottom;routingCenterY=0.5;snapToPoint=1;recursiveResize=0;autosize=1;treeFolding=1;treeMoving=1;newEdgeStyle={&quot;edgeStyle&quot;:&quot;entityRelationEdgeStyle&quot;,&quot;startArrow&quot;:&quot;none&quot;,&quot;endArrow&quot;:&quot;none&quot;,&quot;segment&quot;:10,&quot;curved&quot;:1,&quot;sourcePerimeterSpacing&quot;:0,&quot;targetPerimeterSpacing&quot;:0};fontFamily=Comic Sans MS;" vertex="1" parent="1">
          <mxGeometry x="585" y="140" width="90" height="30" as="geometry" />
        </mxCell>
        <mxCell id="6X7HV17gJ3_o3CEE1zzu-100" value="" style="edgeStyle=entityRelationEdgeStyle;startArrow=none;endArrow=none;segment=10;curved=1;sourcePerimeterSpacing=0;targetPerimeterSpacing=0;rounded=0;fontFamily=Comic Sans MS;" edge="1" target="6X7HV17gJ3_o3CEE1zzu-99" parent="1" source="6X7HV17gJ3_o3CEE1zzu-2">
          <mxGeometry x="615" y="220" width="80" height="20" as="geometry" />
        </mxCell>
        <mxCell id="6X7HV17gJ3_o3CEE1zzu-101" value="SceneTextGen&lt;div&gt;前景、背景分别监督&lt;/div&gt;" style="whiteSpace=wrap;html=1;shape=partialRectangle;top=0;left=0;bottom=1;right=0;points=[[0,1],[1,1]];fillColor=none;align=center;verticalAlign=bottom;routingCenterY=0.5;snapToPoint=1;recursiveResize=0;autosize=1;treeFolding=1;treeMoving=1;newEdgeStyle={&quot;edgeStyle&quot;:&quot;entityRelationEdgeStyle&quot;,&quot;startArrow&quot;:&quot;none&quot;,&quot;endArrow&quot;:&quot;none&quot;,&quot;segment&quot;:10,&quot;curved&quot;:1,&quot;sourcePerimeterSpacing&quot;:0,&quot;targetPerimeterSpacing&quot;:0};fontFamily=Comic Sans MS;" vertex="1" parent="1">
          <mxGeometry x="710" y="110" width="150" height="40" as="geometry" />
        </mxCell>
        <mxCell id="6X7HV17gJ3_o3CEE1zzu-102" value="" style="edgeStyle=entityRelationEdgeStyle;startArrow=none;endArrow=none;segment=10;curved=1;sourcePerimeterSpacing=0;targetPerimeterSpacing=0;rounded=0;fontFamily=Comic Sans MS;" edge="1" target="6X7HV17gJ3_o3CEE1zzu-101" parent="1" source="6X7HV17gJ3_o3CEE1zzu-99">
          <mxGeometry x="755" y="145" width="80" height="20" as="geometry" />
        </mxCell>
        <mxCell id="6X7HV17gJ3_o3CEE1zzu-103" value="SceneVTG-Erase" style="whiteSpace=wrap;html=1;shape=partialRectangle;top=0;left=0;bottom=1;right=0;points=[[0,1],[1,1]];fillColor=none;align=center;verticalAlign=bottom;routingCenterY=0.5;snapToPoint=1;recursiveResize=0;autosize=1;treeFolding=1;treeMoving=1;newEdgeStyle={&quot;edgeStyle&quot;:&quot;entityRelationEdgeStyle&quot;,&quot;startArrow&quot;:&quot;none&quot;,&quot;endArrow&quot;:&quot;none&quot;,&quot;segment&quot;:10,&quot;curved&quot;:1,&quot;sourcePerimeterSpacing&quot;:0,&quot;targetPerimeterSpacing&quot;:0};fontFamily=Comic Sans MS;" vertex="1" parent="1">
          <mxGeometry x="-175" y="320" width="140" height="30" as="geometry" />
        </mxCell>
        <mxCell id="6X7HV17gJ3_o3CEE1zzu-104" value="" style="edgeStyle=entityRelationEdgeStyle;startArrow=none;endArrow=none;segment=10;curved=1;sourcePerimeterSpacing=0;targetPerimeterSpacing=0;rounded=0;fontFamily=Comic Sans MS;" edge="1" target="6X7HV17gJ3_o3CEE1zzu-103" parent="1" source="6X7HV17gJ3_o3CEE1zzu-11">
          <mxGeometry x="-170" y="265" width="80" height="20" as="geometry" />
        </mxCell>
        <mxCell id="6X7HV17gJ3_o3CEE1zzu-105" value="SceneTextGen 提出" style="whiteSpace=wrap;html=1;shape=partialRectangle;top=0;left=0;bottom=1;right=0;points=[[0,1],[1,1]];fillColor=none;align=center;verticalAlign=bottom;routingCenterY=0.5;snapToPoint=1;recursiveResize=0;autosize=1;treeFolding=1;treeMoving=1;newEdgeStyle={&quot;edgeStyle&quot;:&quot;entityRelationEdgeStyle&quot;,&quot;startArrow&quot;:&quot;none&quot;,&quot;endArrow&quot;:&quot;none&quot;,&quot;segment&quot;:10,&quot;curved&quot;:1,&quot;sourcePerimeterSpacing&quot;:0,&quot;targetPerimeterSpacing&quot;:0};fontFamily=Comic Sans MS;" vertex="1" parent="1">
          <mxGeometry x="-360" y="300" width="150" height="30" as="geometry" />
        </mxCell>
        <mxCell id="6X7HV17gJ3_o3CEE1zzu-106" value="" style="edgeStyle=entityRelationEdgeStyle;startArrow=none;endArrow=none;segment=10;curved=1;sourcePerimeterSpacing=0;targetPerimeterSpacing=0;rounded=0;fontFamily=Comic Sans MS;" edge="1" target="6X7HV17gJ3_o3CEE1zzu-105" parent="1" source="6X7HV17gJ3_o3CEE1zzu-103">
          <mxGeometry x="-330" y="325" width="80" height="20" as="geometry" />
        </mxCell>
      </root>
    </mxGraphModel>
  </diagram>
</mxfile>
